<svg width="20" height="22" viewBox="0 0 20 22" fill="none" xmlns="http://www.w3.org/2000/svg">
<path d="M6.15387 8.06665C6.35789 8.06665 6.55354 8.14391 6.6978 8.28144C6.84206 8.41897 6.92311 8.60549 6.92311 8.79998V17.6C6.92311 17.7945 6.84206 17.981 6.6978 18.1185C6.55354 18.2561 6.35789 18.3333 6.15387 18.3333C5.94986 18.3333 5.7542 18.2561 5.60995 18.1185C5.46569 17.981 5.38464 17.7945 5.38464 17.6V8.79998C5.38464 8.60549 5.46569 8.41897 5.60995 8.28144C5.7542 8.14391 5.94986 8.06665 6.15387 8.06665ZM10 8.06665C10.204 8.06665 10.3997 8.14391 10.544 8.28144C10.6882 8.41897 10.7693 8.60549 10.7693 8.79998V17.6C10.7693 17.7945 10.6882 17.981 10.544 18.1185C10.3997 18.2561 10.204 18.3333 10 18.3333C9.79602 18.3333 9.60036 18.2561 9.4561 18.1185C9.31184 17.981 9.2308 17.7945 9.2308 17.6V8.79998C9.2308 8.60549 9.31184 8.41897 9.4561 8.28144C9.60036 8.14391 9.79602 8.06665 10 8.06665ZM14.6154 8.79998C14.6154 8.60549 14.5344 8.41897 14.3901 8.28144C14.2459 8.14391 14.0502 8.06665 13.8462 8.06665C13.6422 8.06665 13.4465 8.14391 13.3023 8.28144C13.158 8.41897 13.077 8.60549 13.077 8.79998V17.6C13.077 17.7945 13.158 17.981 13.3023 18.1185C13.4465 18.2561 13.6422 18.3333 13.8462 18.3333C14.0502 18.3333 14.2459 18.2561 14.3901 18.1185C14.5344 17.981 14.6154 17.7945 14.6154 17.6V8.79998Z" fill="white"/>
<path fill-rule="evenodd" clip-rule="evenodd" d="M20 4.4C20 4.78898 19.8379 5.16204 19.5494 5.43709C19.2609 5.71214 18.8696 5.86667 18.4615 5.86667H17.6923V19.0667C17.6923 19.8446 17.3681 20.5907 16.7911 21.1408C16.2141 21.691 15.4314 22 14.6154 22H5.38462C4.56856 22 3.78594 21.691 3.2089 21.1408C2.63187 20.5907 2.30769 19.8446 2.30769 19.0667V5.86667H1.53846C1.13044 5.86667 0.739122 5.71214 0.450605 5.43709C0.162087 5.16204 0 4.78898 0 4.4V2.93333C0 2.54435 0.162087 2.1713 0.450605 1.89624C0.739122 1.62119 1.13044 1.46667 1.53846 1.46667H6.92308C6.92308 1.07768 7.08517 0.70463 7.37368 0.429577C7.6622 0.154523 8.05351 0 8.46154 0L11.5385 0C11.9465 0 12.3378 0.154523 12.6263 0.429577C12.9148 0.70463 13.0769 1.07768 13.0769 1.46667H18.4615C18.8696 1.46667 19.2609 1.62119 19.5494 1.89624C19.8379 2.1713 20 2.54435 20 2.93333V4.4ZM4.02769 5.86667L3.84615 5.9532V19.0667C3.84615 19.4557 4.00824 19.8287 4.29676 20.1038C4.58528 20.3788 4.97659 20.5333 5.38462 20.5333H14.6154C15.0234 20.5333 15.4147 20.3788 15.7032 20.1038C15.9918 19.8287 16.1538 19.4557 16.1538 19.0667V5.9532L15.9723 5.86667H4.02769ZM1.53846 4.4V2.93333H18.4615V4.4H1.53846Z" fill="white"/>
</svg>
