<svg width="20" height="22" viewBox="0 0 20 22" fill="none" xmlns="http://www.w3.org/2000/svg">
<path d="M16.8401 0L20 3.47587L17.5911 6.12681L14.4312 2.65093L16.8401 0Z" fill="white"/>
<path d="M5.26648 16.2069H8.42637L16.1018 7.76396L12.9419 4.28809L5.26648 12.731V16.2069Z" fill="white"/>
<path d="M16.8528 19.6828H5.43291C5.40552 19.6828 5.37708 19.6943 5.3497 19.6943C5.31494 19.6943 5.28018 19.6839 5.24437 19.6828H2.10659V3.46202H9.31852L11.4251 1.14478H2.10659C0.944808 1.14478 0 2.1829 0 3.46202V19.6828C0 20.9619 0.944808 22 2.10659 22H16.8528C17.4115 22 17.9473 21.7559 18.3423 21.3213C18.7374 20.8867 18.9594 20.2973 18.9594 19.6828V9.63981L16.8528 11.9571V19.6828Z" fill="white"/>
</svg>
